<?xml version="1.0" encoding="UTF-8"?><svg id="_Слой_2" xmlns="http://www.w3.org/2000/svg" viewBox="0 0 551.6 147"><defs><style>.cls-1{fill:#e9fff9;stroke-width:0px;}</style></defs><g id="_Слой_1-2"><path class="cls-1" d="m23.65,53.87c3.17-1.9,6.78-2.85,10.85-2.85s7.67.83,10.8,2.5c3.13,1.67,5.93,4.5,8.4,8.5l12.2-4.4c-2.87-6.07-6.83-10.8-11.9-14.2-5.07-3.4-11.57-5.1-19.5-5.1-5,0-9.6.87-13.8,2.6-4.2,1.73-7.85,4.17-10.95,7.3-3.1,3.13-5.5,6.85-7.2,11.15-1.7,4.3-2.55,9.02-2.55,14.15,0,6.8,1.42,12.85,4.25,18.15,2.83,5.3,6.83,9.47,12,12.5,5.17,3.03,11.25,4.55,18.25,4.55,7.93,0,14.43-1.7,19.5-5.1,5.07-3.4,9.03-8.13,11.9-14.2l-12.2-4.4c-2.47,4-5.27,6.83-8.4,8.5-3.13,1.67-6.73,2.5-10.8,2.5s-7.68-.95-10.85-2.85c-3.17-1.9-5.67-4.55-7.5-7.95-1.83-3.4-2.75-7.3-2.75-11.7s.92-8.38,2.75-11.75c1.83-3.37,4.33-6,7.5-7.9Z"/><rect class="cls-1" x="74.4" y="39.42" width="13.1" height="68.1"/><polygon class="cls-1" points="146.2 84.01 112.8 39.42 101.1 39.42 101.1 107.52 114.2 107.52 114.2 62.93 147.6 107.52 159.3 107.52 159.3 39.42 146.2 39.42 146.2 84.01"/><polygon class="cls-1" points="172.9 107.52 215.6 107.52 215.6 95.02 186 95.02 186 79.62 209.9 79.62 209.9 67.12 186 67.12 186 51.82 215.6 51.82 215.6 39.42 172.9 39.42 172.9 107.52"/><path class="cls-1" d="m280.5,39.42l-16.9,47.04-16.9-47.04h-11.7l-12.2,68.1h13.3l4.9-31.1c.73-4.2,1.35-8.42,1.85-12.65.08-.65.13-1.3.2-1.96.22.8.43,1.59.65,2.36,1.13,3.97,2.43,8.02,3.9,12.15l10.9,30.3h10.2l10.9-30.3c1.46-4.13,2.75-8.18,3.85-12.15.23-.81.45-1.66.68-2.5.08.7.14,1.4.22,2.1.5,4.23,1.12,8.45,1.85,12.65l4.9,31.1h13.3l-12.2-68.1h-11.7Z"/><path class="cls-1" d="m332.6,39.42l-24.2,68.1h13.2l4.78-13.7h27.16l4.57,13.7h13.2l-23.4-68.1h-15.3Zm-1.97,42.2l9.63-27.63,9.21,27.63h-18.84Z"/><polygon class="cls-1" points="367.2 51.92 387.7 51.92 387.7 107.52 400.9 107.52 400.9 51.92 422 51.92 422 39.42 367.2 39.42 367.2 51.92"/><path class="cls-1" d="m446.05,53.87c3.17-1.9,6.78-2.85,10.85-2.85s7.67.83,10.8,2.5c3.13,1.67,5.93,4.5,8.4,8.5l12.2-4.4c-2.87-6.07-6.83-10.8-11.9-14.2-5.07-3.4-11.57-5.1-19.5-5.1-5,0-9.6.87-13.8,2.6-4.2,1.73-7.85,4.17-10.95,7.3-3.1,3.13-5.5,6.85-7.2,11.15-1.7,4.3-2.55,9.02-2.55,14.15,0,6.8,1.42,12.85,4.25,18.15,2.83,5.3,6.83,9.47,12,12.5,5.17,3.03,11.25,4.55,18.25,4.55,7.93,0,14.43-1.7,19.5-5.1,5.07-3.4,9.03-8.13,11.9-14.2l-12.2-4.4c-2.47,4-5.27,6.83-8.4,8.5-3.13,1.67-6.73,2.5-10.8,2.5s-7.68-.95-10.85-2.85c-3.17-1.9-5.67-4.55-7.5-7.95-1.83-3.4-2.75-7.3-2.75-11.7s.92-8.38,2.75-11.75c1.83-3.37,4.33-6,7.5-7.9Z"/><polygon class="cls-1" points="538.5 39.42 538.5 67.92 509.9 67.92 509.9 39.42 496.8 39.42 496.8 107.52 509.9 107.52 509.9 80.42 538.5 80.42 538.5 107.52 551.6 107.52 551.6 39.42 538.5 39.42"/><path class="cls-1" d="m263.51,142.29c10.42.02,36.8.14,70.93,1.34,25.44.89,47.98,2.13,66.94,3.37v-28h-14v23c-36.51-6.6-81.31-11.69-132.48-11.07-43.92.53-82.85,5.16-115.52,11.07v-23h-14v28c57.13-3.87,103.91-4.76,138.13-4.71Z"/><path class="cls-1" d="m263.24,4.71c-10.42-.02-36.8-.14-70.93-1.34-25.44-.89-47.98-2.13-66.94-3.37,0,4.67,0,9.33,0,14v14c4.67,0,9.33,0,14,0V5c36.51,6.6,81.31,11.69,132.48,11.07,43.92-.53,82.85-5.16,115.52-11.07v23c4.67,0,9.33,0,14,0,0-9.33,0-18.67,0-28-57.13,3.87-103.91,4.76-138.13,4.71Z"/></g></svg>