<?xml version="1.0" encoding="UTF-8"?><svg id="_Слой_2" xmlns="http://www.w3.org/2000/svg" viewBox="0 0 144 144"><defs><style>.cls-1{fill:#2b2d42;}.cls-1,.cls-2{stroke-width:0px;}.cls-2{fill:#efc81a;}</style></defs><g id="_Слой_1-2"><rect class="cls-1" width="144" height="144"/><path class="cls-2" d="m72.06,104.23c4.43,0,15.64.06,30.14.57,10.81.38,20.39.9,28.44,1.43v-11.9h-5.95v9.77c-15.51-2.8-34.55-4.97-56.29-4.7-18.66.23-35.2,2.19-49.09,4.7v-9.77h-5.95v11.9c24.27-1.64,44.15-2.02,58.69-2Z"/><path class="cls-2" d="m71.94,39.77c-4.43,0-15.64-.06-30.14-.57-10.81-.38-20.39-.9-28.44-1.43v11.9h5.95v-9.77c15.51,2.8,34.55,4.97,56.29,4.7,18.66-.23,35.2-2.19,49.09-4.7v9.77h5.95v-11.9c-24.27,1.64-44.15,2.02-58.69,2Z"/><path class="cls-2" d="m50.02,92.27c-3.99,0-7.52-.88-10.49-2.63-2.98-1.75-5.31-4.18-6.94-7.23-1.62-3.03-2.44-6.53-2.44-10.41,0-2.92.49-5.65,1.47-8.11.97-2.47,2.37-4.63,4.16-6.44,1.78-1.8,3.91-3.22,6.32-4.22,2.41-1,5.08-1.5,7.93-1.5,4.52,0,8.3,1,11.23,2.96,2.91,1.95,5.22,4.7,6.86,8.17l.47,1-8.48,3.06-.43-.69c-1.25-2.03-2.67-3.47-4.22-4.29-1.56-.83-3.39-1.25-5.44-1.25s-3.86.48-5.42,1.42c-1.57.94-2.83,2.27-3.74,3.95-.92,1.68-1.38,3.69-1.38,5.95s.47,4.22,1.39,5.93c.91,1.69,2.17,3.03,3.74,3.97,1.57.94,3.39,1.42,5.42,1.42s3.88-.42,5.44-1.25c1.55-.82,2.96-2.27,4.22-4.29l.43-.69,8.48,3.06-.47.99c-1.64,3.47-3.95,6.22-6.86,8.17-2.93,1.97-6.71,2.96-11.23,2.96Z"/><path class="cls-1" d="m50.02,52.73c4.34,0,7.9.93,10.67,2.79,2.77,1.86,4.94,4.45,6.51,7.77l-6.68,2.41c-1.35-2.19-2.88-3.74-4.6-4.65-1.72-.91-3.69-1.37-5.91-1.37s-4.21.52-5.94,1.56c-1.73,1.04-3.1,2.48-4.1,4.32-1,1.84-1.51,3.99-1.51,6.43s.5,4.54,1.51,6.4c1,1.86,2.37,3.31,4.1,4.35,1.73,1.04,3.71,1.56,5.94,1.56s4.2-.46,5.91-1.37c1.71-.91,3.25-2.46,4.6-4.65l6.68,2.41c-1.57,3.32-3.74,5.91-6.51,7.77-2.77,1.86-6.33,2.79-10.67,2.79-3.83,0-7.16-.83-9.99-2.49-2.83-1.66-5.02-3.94-6.57-6.84-1.55-2.9-2.33-6.21-2.33-9.93,0-2.81.47-5.39,1.4-7.74.93-2.35,2.24-4.39,3.94-6.1,1.7-1.71,3.69-3.05,5.99-4,2.3-.95,4.82-1.42,7.55-1.42m0-2c-2.99,0-5.78.53-8.32,1.57-2.54,1.05-4.77,2.54-6.65,4.44-1.88,1.9-3.35,4.18-4.38,6.77-1.02,2.58-1.54,5.43-1.54,8.48,0,4.04.86,7.7,2.56,10.88,1.72,3.22,4.18,5.78,7.32,7.62,3.12,1.83,6.83,2.77,11,2.77,4.73,0,8.69-1.05,11.79-3.13,3.06-2.06,5.49-4.94,7.21-8.58l.94-1.99-2.07-.75-6.68-2.41-1.53-.55-.85,1.38c-1.16,1.87-2.45,3.2-3.83,3.94-1.42.75-3.09,1.13-4.97,1.13s-3.48-.42-4.91-1.27c-1.43-.86-2.54-2.03-3.37-3.59-.84-1.56-1.27-3.39-1.27-5.45s.42-3.94,1.26-5.47c.84-1.54,1.94-2.7,3.38-3.56,1.43-.86,3.04-1.28,4.91-1.28s3.56.38,4.97,1.13c1.39.74,2.68,2.06,3.83,3.94l.85,1.38,1.53-.55,6.68-2.41,2.07-.75-.94-1.99c-1.72-3.64-4.14-6.52-7.21-8.58-3.1-2.08-7.06-3.13-11.79-3.13h0Z"/><path class="cls-2" d="m104.54,92.14l-2.89-18.33c-.2-1.15-.39-2.33-.56-3.51-.38,1.2-.78,2.41-1.22,3.63l-6.37,17.7h-7.14l-6.36-17.69c-.43-1.21-.84-2.42-1.22-3.62-.17,1.17-.36,2.34-.56,3.51l-2.88,18.31h-9.53l7.21-40.28h8.12l8.8,24.48,8.8-24.48h8.12l7.22,40.28h-9.53Z"/><path class="cls-1" d="m106.01,52.86l6.86,38.28h-7.48l-2.75-17.48c-.41-2.36-.76-4.73-1.04-7.11-.05-.39-.08-.79-.12-1.18-.13.48-.26.95-.38,1.41-.62,2.23-1.34,4.51-2.16,6.83l-6.13,17.03h-5.73l-6.13-17.03c-.82-2.32-1.56-4.6-2.19-6.83-.12-.43-.25-.88-.37-1.32-.04.37-.07.73-.11,1.1-.28,2.38-.63,4.75-1.04,7.11l-2.75,17.48h-7.48l6.86-38.28h6.58l9.5,26.44,9.5-26.44h6.58m1.67-2h-9.66l-.48,1.32-7.62,21.2-7.62-21.2-.48-1.32h-9.66l-.3,1.65-6.86,38.28-.42,2.35h11.58l.27-1.69,2.68-16.98,6.06,16.84.48,1.32h8.55l.48-1.32,6.06-16.84,2.68,16.98.27,1.69h11.57l-.42-2.35-6.86-38.28-.3-1.65h0Z"/><polyline class="cls-2" points="13.36 94.33 13.36 49.67 19.31 49.67 19.31 94.33"/><polyline class="cls-2" points="124.69 49.67 124.69 94.33 130.64 94.33 130.64 49.67"/></g></svg>