<?xml version="1.0" encoding="UTF-8"?><svg id="_Слой_2" xmlns="http://www.w3.org/2000/svg" viewBox="0 0 551.6 126"><defs><style>.cls-1{fill:#e9fff9;stroke-width:0px;}</style></defs><g id="_Слой_1-2"><path class="cls-1" d="m23.65,43.58c3.17-1.9,6.78-2.85,10.85-2.85s7.67.83,10.8,2.5c3.13,1.67,5.93,4.5,8.4,8.5l12.2-4.4c-2.87-6.07-6.83-10.8-11.9-14.2-5.07-3.4-11.57-5.1-19.5-5.1-5,0-9.6.87-13.8,2.6-4.2,1.73-7.85,4.17-10.95,7.3-3.1,3.13-5.5,6.85-7.2,11.15-1.7,4.3-2.55,9.02-2.55,14.15,0,6.8,1.42,12.85,4.25,18.15,2.83,5.3,6.83,9.47,12,12.5,5.17,3.03,11.25,4.55,18.25,4.55,7.93,0,14.43-1.7,19.5-5.1,5.07-3.4,9.03-8.13,11.9-14.2l-12.2-4.4c-2.47,4-5.27,6.83-8.4,8.5-3.13,1.67-6.73,2.5-10.8,2.5s-7.68-.95-10.85-2.85c-3.17-1.9-5.67-4.55-7.5-7.95-1.83-3.4-2.75-7.3-2.75-11.7s.92-8.38,2.75-11.75c1.83-3.37,4.33-6,7.5-7.9Z"/><rect class="cls-1" x="74.4" y="29.13" width="13.1" height="68.1"/><polygon class="cls-1" points="146.2 73.72 112.8 29.13 101.1 29.13 101.1 97.23 114.2 97.23 114.2 52.64 147.6 97.23 159.3 97.23 159.3 29.13 146.2 29.13 146.2 73.72"/><polygon class="cls-1" points="172.9 97.23 215.6 97.23 215.6 84.73 186 84.73 186 69.33 209.9 69.33 209.9 56.83 186 56.83 186 41.53 215.6 41.53 215.6 29.13 172.9 29.13 172.9 97.23"/><path class="cls-1" d="m280.5,29.13l-16.9,47.04-16.9-47.04h-11.7l-12.2,68.1h13.3l4.9-31.1c.73-4.2,1.35-8.42,1.85-12.65.08-.65.13-1.3.2-1.96.22.8.43,1.59.65,2.36,1.13,3.97,2.43,8.02,3.9,12.15l10.9,30.3h10.2l10.9-30.3c1.46-4.13,2.75-8.18,3.85-12.15.23-.81.45-1.66.68-2.5.08.7.14,1.4.22,2.1.5,4.23,1.12,8.45,1.85,12.65l4.9,31.1h13.3l-12.2-68.1h-11.7Z"/><path class="cls-1" d="m332.6,29.13l-24.2,68.1h13.2l4.78-13.7h27.16l4.57,13.7h13.2l-23.4-68.1h-15.3Zm-1.97,42.2l9.63-27.63,9.21,27.63h-18.84Z"/><polygon class="cls-1" points="367.2 41.63 387.7 41.63 387.7 97.23 400.9 97.23 400.9 41.63 422 41.63 422 29.13 367.2 29.13 367.2 41.63"/><path class="cls-1" d="m446.05,43.58c3.17-1.9,6.78-2.85,10.85-2.85s7.67.83,10.8,2.5c3.13,1.67,5.93,4.5,8.4,8.5l12.2-4.4c-2.87-6.07-6.83-10.8-11.9-14.2-5.07-3.4-11.57-5.1-19.5-5.1-5,0-9.6.87-13.8,2.6-4.2,1.73-7.85,4.17-10.95,7.3-3.1,3.13-5.5,6.85-7.2,11.15-1.7,4.3-2.55,9.02-2.55,14.15,0,6.8,1.42,12.85,4.25,18.15,2.83,5.3,6.83,9.47,12,12.5,5.17,3.03,11.25,4.55,18.25,4.55,7.93,0,14.43-1.7,19.5-5.1,5.07-3.4,9.03-8.13,11.9-14.2l-12.2-4.4c-2.47,4-5.27,6.83-8.4,8.5-3.13,1.67-6.73,2.5-10.8,2.5s-7.68-.95-10.85-2.85c-3.17-1.9-5.67-4.55-7.5-7.95-1.83-3.4-2.75-7.3-2.75-11.7s.92-8.38,2.75-11.75c1.83-3.37,4.33-6,7.5-7.9Z"/><polygon class="cls-1" points="538.5 29.13 538.5 57.63 509.9 57.63 509.9 29.13 496.8 29.13 496.8 97.23 509.9 97.23 509.9 70.13 538.5 70.13 538.5 97.23 551.6 97.23 551.6 29.13 538.5 29.13"/><path class="cls-1" d="m262.51,5c-48.68-.01-94.63-1.89-137.5-5v17h14V6c15.42,2.76,34.07,5.56,55.37,7.65,15.39,1.51,39.83,3.41,68.13,3.35,48.27-.1,90.39-5.43,124.55-12v12h13.95V0c-43.16,3.13-89.44,5.01-138.5,5Z"/><path class="cls-1" d="m263.51,121c48.68.01,94.63,1.89,137.5,5v-17h-14v12c-15.17-3.07-34.02-6.28-55.79-8.6-31.3-3.34-60.08-3.42-67.71-3.4-53.45.14-102.67,8.08-124.5,12v-12h-14v17c43.16-3.13,89.44-5.01,138.5-5Z"/></g></svg>